<svg xmlns="http://www.w3.org/2000/svg" width="192" height="192" viewBox="0 0 192 192" role="img" aria-label="Marketech Digital favicon">
  <rect width="192" height="192" fill="#ffffff"/>
  <path d="M 140 87 L 99 120 L 97 120 L 78 105 L 78 123 L 97 138 L 99 138 L 123 118 L 125 118 L 126 119 L 126 151 L 127 151 L 140 140 Z" fill="#ff4b0b" fill-rule="evenodd"/>
  <path d="M 90 8 L 89 9 L 82 9 L 73 11 L 52 20 L 42 27 L 28 41 L 19 55 L 12 73 L 10 83 L 10 108 L 12 118 L 20 138 L 29 151 L 42 164 L 52 171 L 73 180 L 82 182 L 89 182 L 90 183 L 104 183 L 105 182 L 117 181 L 132 176 L 140 172 L 153 163 L 164 152 L 172 141 L 181 120 L 178 120 L 176 127 L 170 139 L 162 150 L 151 161 L 143 167 L 130 174 L 114 179 L 86 180 L 69 176 L 54 169 L 44 162 L 30 148 L 19 130 L 15 119 L 12 104 L 13 80 L 18 63 L 30 43 L 48 26 L 69 15 L 86 11 L 108 11 L 122 14 L 133 19 L 135 19 L 136 17 L 117 10 L 105 9 L 104 8 Z" fill="#ff4b0b" fill-rule="evenodd"/>
  <path d="M 86 22 L 74 25 L 61 31 L 51 38 L 38 52 L 31 64 L 26 80 L 25 105 L 29 121 L 36 135 L 41 142 L 55 155 L 69 163 L 81 167 L 110 168 L 122 165 L 135 159 L 144 153 L 153 143 L 148 143 L 134 154 L 119 161 L 111 163 L 105 163 L 104 164 L 85 163 L 65 155 L 65 86 L 66 85 L 69 86 L 97 109 L 100 108 L 139 76 L 141 79 L 145 92 L 167 41 L 114 54 L 125 60 L 128 63 L 98 88 L 50 50 L 49 47 L 64 35 L 77 29 L 91 26 L 112 27 L 122 30 L 138 39 L 146 39 L 137 32 L 119 24 L 111 22 L 103 22 L 102 21 Z M 47 49 L 49 51 L 49 139 L 47 141 L 42 135 L 35 123 L 30 107 L 30 98 L 29 97 L 30 83 L 33 72 L 40 58 Z" fill="#2f2f34" fill-rule="evenodd"/>
</svg>
