<svg xmlns="http://www.w3.org/2000/svg" viewBox="0 0 1536 1536">
<path d="M 736.0 1432.5 L 811.0 1430.5 L 874.0 1422.5 L 943.0 1406.5 L 980.0 1394.5 L 983.0 1391.5 L 989.0 1391.5 L 1045.0 1368.5 L 1080.0 1350.5 L 1112.0 1332.5 L 1166.0 1295.5 L 1212.0 1257.5 L 1255.5 1215.0 L 1288.5 1177.0 L 1327.5 1124.0 L 1358.5 1072.0 L 1383.5 1021.0 L 1399.5 981.0 L 1413.5 933.0 L 1406.0 929.5 L 1391.0 929.5 L 1384.5 933.0 L 1356.5 1008.0 L 1336.5 1050.0 L 1310.5 1096.0 L 1276.5 1144.0 L 1246.5 1181.0 L 1201.0 1227.5 L 1174.0 1251.5 L 1143.0 1275.5 L 1091.0 1310.5 L 1028.0 1343.5 L 963.0 1369.5 L 911.0 1384.5 L 872.0 1392.5 L 841.0 1397.5 L 777.0 1402.5 L 699.0 1400.5 L 656.0 1395.5 L 648.0 1392.5 L 638.0 1392.5 L 600.0 1384.5 L 562.0 1374.5 L 525.0 1361.5 L 467.0 1336.5 L 425.0 1314.5 L 365.0 1274.5 L 332.0 1248.5 L 301.0 1220.5 L 267.5 1186.0 L 235.5 1148.0 L 211.5 1115.0 L 188.5 1078.0 L 162.5 1029.0 L 145.5 990.0 L 134.5 962.0 L 116.5 899.0 L 106.5 848.0 L 101.5 808.0 L 99.5 731.0 L 101.5 690.0 L 106.5 647.0 L 126.5 557.0 L 159.5 470.0 L 198.5 399.0 L 237.5 344.0 L 285.5 289.0 L 322.0 254.5 L 370.0 215.5 L 425.0 179.5 L 482.0 150.5 L 533.0 129.5 L 601.0 109.5 L 658.0 98.5 L 702.0 93.5 L 776.0 91.5 L 840.0 96.5 L 917.0 111.5 L 991.0 134.5 L 1050.0 161.5 L 1053.5 158.0 L 1053.5 144.0 L 1063.0 142.5 L 1062.5 141.0 L 1066.5 139.0 L 1065.0 135.5 L 1023.0 115.5 L 960.0 92.5 L 912.0 79.5 L 862.0 69.5 L 825.0 66.5 L 814.0 63.5 L 734.0 61.5 L 672.0 66.5 L 610.0 76.5 L 541.0 95.5 L 483.0 117.5 L 411.0 153.5 L 359.0 187.5 L 311.0 224.5 L 261.5 271.0 L 214.5 325.0 L 182.5 369.0 L 151.5 421.0 L 126.5 472.0 L 110.5 512.0 L 94.5 561.0 L 76.5 644.0 L 69.5 727.0 L 69.5 773.0 L 74.5 833.0 L 86.5 901.0 L 102.5 959.0 L 130.5 1031.0 L 166.5 1100.0 L 207.5 1160.0 L 245.5 1206.0 L 295.0 1255.5 L 345.0 1296.5 L 390.0 1327.5 L 444.0 1358.5 L 507.0 1386.5 L 568.0 1406.5 L 637.0 1422.5 L 689.0 1429.5 L 736.0 1432.5 Z" fill="#ff5a00" fill-rule="evenodd"/><path d="M 982.5 1186.0 L 1026.0 1150.5 L 1035.0 1145.5 L 1046.0 1133.5 L 1085.0 1104.5 L 1089.5 1100.0 L 1091.5 1092.0 L 1092.5 680.0 L 1090.0 677.5 L 1081.0 681.5 L 1058.0 701.5 L 1014.0 734.5 L 1001.0 747.5 L 989.0 754.5 L 767.0 934.5 L 758.0 934.5 L 755.0 932.5 L 719.0 901.5 L 700.0 888.5 L 659.0 853.5 L 645.0 844.5 L 623.0 824.5 L 603.0 810.5 L 599.5 813.0 L 599.5 944.0 L 602.5 957.0 L 631.0 982.5 L 678.0 1018.5 L 713.0 1048.5 L 727.0 1057.5 L 743.0 1072.5 L 756.0 1080.5 L 760.0 1085.5 L 767.0 1084.5 L 853.0 1013.5 L 883.0 991.5 L 890.0 983.5 L 894.0 982.5 L 944.0 940.5 L 949.0 938.5 L 964.0 924.5 L 970.0 923.5 L 974.0 925.5 L 976.5 929.0 L 976.5 1184.0 L 978.0 1186.5 L 982.5 1186.0 Z" fill="#ff5a00" fill-rule="evenodd"/>
<path d="M 813.5 1319.0 L 837.0 1312.5 L 873.0 1309.5 L 890.0 1303.5 L 904.0 1302.5 L 917.0 1296.5 L 933.0 1294.5 L 943.0 1287.5 L 950.0 1288.5 L 957.0 1286.5 L 963.0 1281.5 L 975.0 1279.5 L 979.0 1275.5 L 995.0 1271.5 L 1003.0 1265.5 L 1010.0 1264.5 L 1017.0 1258.5 L 1025.0 1257.5 L 1070.0 1229.5 L 1077.0 1227.5 L 1081.0 1222.5 L 1108.0 1205.5 L 1161.0 1160.5 L 1193.5 1127.0 L 1198.5 1119.0 L 1197.0 1117.5 L 1143.0 1118.5 L 1107.0 1151.5 L 1084.0 1167.5 L 1079.0 1173.5 L 1073.0 1175.5 L 1069.0 1180.5 L 1053.0 1189.5 L 1047.0 1195.5 L 1025.0 1206.5 L 1022.0 1210.5 L 999.0 1220.5 L 994.0 1225.5 L 985.0 1226.5 L 981.0 1230.5 L 968.0 1234.5 L 961.0 1239.5 L 950.0 1241.5 L 943.0 1246.5 L 931.0 1248.5 L 916.0 1255.5 L 900.0 1257.5 L 893.0 1261.5 L 871.0 1264.5 L 850.0 1270.5 L 791.0 1276.5 L 746.0 1277.5 L 695.0 1270.5 L 672.0 1269.5 L 664.0 1265.5 L 640.0 1262.5 L 625.0 1256.5 L 607.0 1253.5 L 599.0 1248.5 L 589.0 1247.5 L 579.0 1241.5 L 568.0 1239.5 L 559.0 1233.5 L 554.0 1233.5 L 543.0 1226.5 L 533.0 1224.5 L 531.0 1221.5 L 519.0 1216.5 L 507.5 1206.0 L 506.5 1196.0 L 507.5 671.0 L 512.0 666.5 L 521.0 665.5 L 524.0 667.5 L 530.0 674.5 L 534.0 675.5 L 559.0 697.5 L 573.0 706.5 L 586.0 719.5 L 591.0 721.5 L 632.0 756.5 L 637.0 758.5 L 652.0 772.5 L 657.0 774.5 L 758.0 856.5 L 767.0 854.5 L 1080.0 600.5 L 1085.5 604.0 L 1088.5 611.0 L 1098.5 643.0 L 1103.5 652.0 L 1130.0 725.5 L 1304.5 320.0 L 1296.0 320.5 L 1282.0 325.5 L 1274.0 325.5 L 1249.0 333.5 L 1221.0 338.5 L 1220.0 340.5 L 1212.0 340.5 L 1186.0 348.5 L 1178.0 348.5 L 1166.0 353.5 L 1158.0 353.5 L 1145.0 358.5 L 1136.0 358.5 L 1110.0 366.5 L 1061.0 376.5 L 1048.0 381.5 L 1040.0 381.5 L 1035.0 384.5 L 878.0 420.5 L 879.0 423.5 L 892.0 431.5 L 996.0 491.5 L 996.5 496.0 L 915.0 562.5 L 902.0 570.5 L 889.0 583.5 L 874.0 593.5 L 824.0 635.5 L 820.0 636.5 L 770.0 679.5 L 759.0 682.5 L 755.0 681.5 L 705.0 642.5 L 655.0 599.5 L 651.0 598.5 L 622.0 573.5 L 613.0 568.5 L 607.0 561.5 L 594.0 553.5 L 563.0 525.5 L 558.0 523.5 L 553.0 517.5 L 549.0 516.5 L 524.0 494.5 L 493.0 471.5 L 489.0 465.5 L 483.0 463.5 L 442.0 428.5 L 436.0 425.5 L 412.0 404.5 L 408.0 403.5 L 382.5 381.0 L 381.5 374.0 L 384.5 370.0 L 420.0 336.5 L 451.0 311.5 L 458.0 308.5 L 474.0 295.5 L 481.0 293.5 L 484.0 289.5 L 522.0 267.5 L 551.0 255.5 L 554.0 251.5 L 566.0 249.5 L 575.0 243.5 L 583.0 242.5 L 591.0 237.5 L 603.0 235.5 L 619.0 228.5 L 633.0 227.5 L 646.0 221.5 L 673.0 218.5 L 680.0 214.5 L 744.0 209.5 L 788.0 209.5 L 846.0 214.5 L 861.0 219.5 L 882.0 221.5 L 898.0 227.5 L 912.0 229.5 L 921.0 234.5 L 935.0 236.5 L 943.0 241.5 L 954.0 243.5 L 963.0 249.5 L 988.0 258.5 L 1034.0 282.5 L 1050.0 294.5 L 1055.0 295.5 L 1061.0 301.5 L 1067.0 303.5 L 1074.0 310.5 L 1140.0 311.5 L 1141.5 308.0 L 1107.0 279.5 L 1062.0 249.5 L 1054.0 246.5 L 1052.0 243.5 L 1006.0 219.5 L 995.0 216.5 L 988.0 211.5 L 978.0 209.5 L 971.0 204.5 L 956.0 201.5 L 949.0 196.5 L 936.0 194.5 L 919.0 187.5 L 909.0 187.5 L 901.0 182.5 L 876.0 179.5 L 863.0 174.5 L 827.0 172.5 L 794.0 167.5 L 791.0 164.5 L 734.0 164.5 L 736.5 166.0 L 735.0 167.5 L 665.0 174.5 L 649.0 180.5 L 631.0 181.5 L 615.0 188.5 L 601.0 189.5 L 593.0 194.5 L 583.0 195.5 L 573.0 201.5 L 561.0 203.5 L 552.0 209.5 L 541.0 211.5 L 532.0 217.5 L 521.0 220.5 L 517.0 224.5 L 510.0 225.5 L 502.0 231.5 L 480.0 241.5 L 475.0 246.5 L 432.0 272.5 L 376.0 317.5 L 366.0 329.5 L 346.5 346.0 L 307.5 393.0 L 271.5 445.0 L 270.5 451.0 L 265.5 456.0 L 255.5 474.0 L 254.5 480.0 L 250.5 484.0 L 247.5 494.0 L 242.5 500.0 L 240.5 509.0 L 236.5 514.0 L 225.5 541.0 L 225.5 547.0 L 220.5 556.0 L 216.5 573.0 L 212.5 579.0 L 209.5 600.0 L 204.5 611.0 L 202.5 631.0 L 197.5 644.0 L 192.5 701.0 L 187.5 717.0 L 187.5 769.0 L 193.5 789.0 L 197.5 842.0 L 202.5 854.0 L 204.5 876.0 L 209.5 886.0 L 220.5 931.0 L 225.5 938.0 L 228.5 952.0 L 233.5 959.0 L 233.5 964.0 L 240.5 977.0 L 241.5 983.0 L 257.5 1015.0 L 261.5 1019.0 L 266.5 1031.0 L 286.5 1064.0 L 291.5 1068.0 L 294.5 1075.0 L 315.5 1101.0 L 316.5 1105.0 L 376.0 1168.5 L 410.0 1196.5 L 415.0 1198.5 L 420.0 1204.5 L 477.0 1242.5 L 535.0 1271.5 L 545.0 1273.5 L 554.0 1279.5 L 587.0 1289.5 L 596.0 1294.5 L 612.0 1296.5 L 626.0 1302.5 L 649.0 1305.5 L 655.0 1309.5 L 686.0 1311.5 L 694.0 1314.5 L 713.0 1316.5 L 717.0 1319.5 L 813.5 1319.0 Z" fill="#202129" fill-rule="evenodd"/>
</svg>
